<?xml version="1.0" encoding="UTF-8" standalone="no"?>
<!-- Created with Inkscape (http://www.inkscape.org/) -->

<svg
   width="593.6272"
   height="140.31546"
   viewBox="0 0 157.06386 37.125132"
   version="1.1"
   id="svg5"
   inkscape:version="1.2.2 (b0a8486541, 2022-12-01)"
   sodipodi:docname="logo-emdo.svg"
   xmlns:inkscape="http://www.inkscape.org/namespaces/inkscape"
   xmlns:sodipodi="http://sodipodi.sourceforge.net/DTD/sodipodi-0.dtd"
   xmlns="http://www.w3.org/2000/svg"
   xmlns:svg="http://www.w3.org/2000/svg">
  <sodipodi:namedview
     id="namedview7"
     pagecolor="#ffffff"
     bordercolor="#666666"
     borderopacity="1.0"
     inkscape:showpageshadow="2"
     inkscape:pageopacity="0.0"
     inkscape:pagecheckerboard="0"
     inkscape:deskcolor="#d1d1d1"
     inkscape:document-units="mm"
     showgrid="false"
     inkscape:zoom="2.115"
     inkscape:cx="278.25059"
     inkscape:cy="121.74941"
     inkscape:window-width="1918"
     inkscape:window-height="1052"
     inkscape:window-x="0"
     inkscape:window-y="26"
     inkscape:window-maximized="1"
     inkscape:current-layer="layer1"
     showguides="true" />
  <defs
     id="defs2">
    <rect
       x="35.465828"
       y="70.176247"
       width="75.063026"
       height="66.941727"
       id="rect1182" />
    <rect
       x="35.465828"
       y="70.176247"
       width="75.063026"
       height="66.941727"
       id="rect1216" />
    <rect
       x="35.465828"
       y="70.176247"
       width="75.063026"
       height="66.941727"
       id="rect1290" />
    <rect
       x="35.465828"
       y="70.176247"
       width="75.063026"
       height="66.941727"
       id="rect1319" />
  </defs>
  <g
     inkscape:label="Layer 1"
     inkscape:groupmode="layer"
     id="layer1"
     transform="translate(-1.0381881,-7.5559039)">
    <rect
       style="fill:#167800;stroke:#000000;stroke-width:0.446496"
       id="rect962"
       width="37.821934"
       height="36.678635"
       x="1.2614361"
       y="7.7791519" />
    <rect
       style="fill:#000000;fill-opacity:1;stroke:#000000;stroke-width:0.446496"
       id="rect969"
       width="37.821934"
       height="36.678635"
       x="40.859913"
       y="7.7791519" />
    <rect
       style="fill:#000000;fill-opacity:1;stroke:#000000;stroke-width:0.446496"
       id="rect971"
       width="37.821934"
       height="36.678635"
       x="80.458389"
       y="7.7791519" />
    <rect
       style="fill:#167800;stroke:#000000;stroke-width:0.446496"
       id="rect973"
       width="37.821934"
       height="36.678635"
       x="120.05687"
       y="7.7791519" />
    <g
       aria-label="E"
       transform="matrix(3.1399368,0,0,3.1399368,-103.70061,-214.43704)"
       id="text1180"
       style="font-size:12px;line-height:1.25;font-family:Merriweather;-inkscape-font-specification:'Merriweather, Normal';letter-spacing:0px;word-spacing:0px;white-space:pre;shape-inside:url(#rect1182);display:inline">
      <path
         d="m 36.942797,80.361576 v -7.458 l -0.984,-0.144 v -0.606 h 6.114 l 0.168,1.866 h -0.684 l -0.348,-1.17 -2.97,-0.078 v 3.372 l 1.992,-0.036 0.168,-0.99 h 0.666 v 2.754 h -0.666 l -0.168,-1.032 -1.992,-0.03 v 3.588 l 3.372,-0.114 0.642,-1.518 0.702,0.21 -0.348,2.094 h -6.66 v -0.594 z"
         id="path1807" />
    </g>
    <g
       aria-label="M"
       transform="matrix(3.1399368,0,0,3.1399368,-70.243846,-214.43704)"
       id="text1214"
       style="font-size:12px;line-height:1.25;font-family:Merriweather;-inkscape-font-specification:'Merriweather, Normal';letter-spacing:0px;word-spacing:0px;white-space:pre;shape-inside:url(#rect1216);display:inline">
      <path
         d="m 36.546797,80.361576 0.96,-7.458 -1.374,-0.144 v -0.606 h 3.24 l 1.638,5.394 0.396,1.53 0.366,-1.53 1.668,-5.394 h 3.204 v 0.606 l -1.368,0.144 0.948,7.446 1.044,0.126 v 0.594 h -3.456 v -0.594 l 1.092,-0.114 -0.552,-5.388 -0.228,-2.322 -0.498,1.734 -2.004,6.276 h -0.804 l -1.89,-5.748 -0.648,-2.262 -0.246,2.322 -0.564,5.388 1.182,0.114 v 0.594 h -3.108 v -0.594 z"
         id="path1377"
         style="fill:#167800;fill-opacity:1" />
    </g>
    <g
       aria-label="D"
       transform="matrix(3.1399368,0,0,3.1399368,-26.274577,-214.44868)"
       id="text1288"
       style="font-size:12px;line-height:1.25;font-family:Merriweather;-inkscape-font-specification:'Merriweather, Normal';letter-spacing:0px;word-spacing:0px;white-space:pre;shape-inside:url(#rect1290);display:inline;fill:#167800;fill-opacity:1">
      <path
         d="m 36.942797,80.361576 v -7.458 l -0.942,-0.144 v -0.606 h 1.572 q 0.558,0 1.062,-0.042 0.51,-0.048 1.056,-0.048 1.536,0 2.508,0.528 0.972,0.522 1.428,1.482 0.462,0.954 0.462,2.256 0,1.452 -0.576,2.556 -0.57,1.098 -1.596,1.704 -1.026,0.606 -2.388,0.576 -0.444,-0.012 -0.954,-0.054 -0.51,-0.042 -0.984,-0.042 h -1.65 v -0.594 z m 1.278,0.036 q 0.366,0.078 0.714,0.096 0.348,0.012 0.72,0.006 0.888,-0.012 1.572,-0.45 0.69,-0.444 1.08,-1.314 0.39,-0.87 0.39,-2.166 0,-1.872 -0.81,-2.862 -0.81,-0.996 -2.49,-0.996 -0.378,0 -0.672,0.036 -0.294,0.03 -0.504,0.042 z"
         id="path1777"
         style="fill:#167800;fill-opacity:1" />
    </g>
    <g
       aria-label="0"
       transform="matrix(3.1399368,0,0,3.1399368,15.452609,-214.44646)"
       id="text1317"
       style="font-size:12px;line-height:1.25;font-family:Merriweather;-inkscape-font-specification:'Merriweather, Normal';letter-spacing:0px;word-spacing:0px;white-space:pre;shape-inside:url(#rect1319);display:inline">
      <path
         d="m 39.252797,81.183576 q -1.086,0 -1.788,-0.612 -0.702,-0.612 -1.038,-1.656 -0.336,-1.044 -0.336,-2.352 0.006,-1.434 0.45,-2.442 0.45,-1.014 1.212,-1.542 0.762,-0.534 1.71,-0.534 1.098,0 1.788,0.576 0.69,0.57 1.014,1.59 0.324,1.02 0.318,2.352 0,1.422 -0.426,2.46 -0.42,1.032 -1.17,1.596 -0.75,0.564 -1.734,0.564 z m 0.078,-0.618 q 1.02,0 1.428,-0.984 0.408,-0.99 0.408,-2.922 0,-1.926 -0.42,-2.964 -0.414,-1.038 -1.386,-1.038 -0.99,0 -1.428,0.948 -0.438,0.942 -0.438,2.892 0,1.206 0.192,2.124 0.192,0.918 0.594,1.434 0.408,0.51 1.05,0.51 z"
         id="path1804" />
    </g>
  </g>
</svg>
