<?xml version="1.0" encoding="UTF-8" standalone="no"?>
<svg
   viewBox="0 0 1440 525"
   version="1.1"
   id="svg296"
   sodipodi:docname="wave.svg"
   inkscape:version="1.2.1 (9c6d41e410, 2022-07-14, custom)"
   width="1440"
   height="525"
   xmlns:inkscape="http://www.inkscape.org/namespaces/inkscape"
   xmlns:sodipodi="http://sodipodi.sourceforge.net/DTD/sodipodi-0.dtd"
   xmlns="http://www.w3.org/2000/svg"
   xmlns:svg="http://www.w3.org/2000/svg">
  <defs
     id="defs300" />
  <sodipodi:namedview
     id="namedview298"
     pagecolor="#ffffff"
     bordercolor="#666666"
     borderopacity="1.0"
     inkscape:showpageshadow="2"
     inkscape:pageopacity="0.0"
     inkscape:pagecheckerboard="0"
     inkscape:deskcolor="#d1d1d1"
     showgrid="false"
     inkscape:zoom="0.97569444"
     inkscape:cx="660.0427"
     inkscape:cy="192.17082"
     inkscape:window-width="1918"
     inkscape:window-height="1052"
     inkscape:window-x="0"
     inkscape:window-y="26"
     inkscape:window-maximized="1"
     inkscape:current-layer="svg296" />
  <path
     fill="#0099ff"
     fill-opacity="0.3"
     d="m 0,96 30,5.3 c 30,5.7 90,15.7 150,48 60,31.7 120,85.7 180,101.4 60,16.3 117.99253,227.48415 177.99253,190.48415 60,-37 254.60577,-5.2514 314.60577,-10.2514 60,-5 63.6735,-56.13704 123.6735,-50.43704 243.4977,171.81926 236.6942,-72.77868 296.6942,-72.77868 60,0 -72.966,-147.71703 -12.966,-137.01703 60,10.3 120,0.3 150,-5.4 l 30,-5.3 V 0 H 1410 1260 1080 900 720 540 360 180 30 0 Z"
     id="path294"
     sodipodi:nodetypes="ccccsscsccccccccccccccc" />
</svg>
