<?xml version="1.0" standalone="no"?>
<svg xmlns="http://www.w3.org/2000/svg" viewBox="0 0 1440 320">
  <path fill="#0099ff" fill-opacity="0.3" d="M0,96L30,101.3C60,107,120,117,180,149.3C240,181,300,235,360,250.7C420,267,480,245,540,208C600,171,660,117,720,112C780,107,840,149,900,154.7C960,160,1020,128,1080,128C1140,128,1200,160,1260,170.7C1320,181,1380,171,1410,165.3L1440,160L1440,0L1410,0C1380,0,1320,0,1260,0C1200,0,1140,0,1080,0C1020,0,960,0,900,0C840,0,780,0,720,0C660,0,600,0,540,0C480,0,420,0,360,0C300,0,240,0,180,0C120,0,60,0,30,0L0,0Z"/>
</svg>
