<?xml version="1.0" standalone="no"?>
<svg xmlns="http://www.w3.org/2000/svg" viewBox="0 0 1440 320">
  <path fill="#cc0d12" fill-opacity="0.5" d="M0,256L26.7,234.7C53.3,213,107,171,160,170.7C213.3,171,267,213,320,234.7C373.3,256,427,256,480,229.3C533.3,203,587,149,640,106.7C693.3,64,747,32,800,53.3C853.3,75,907,149,960,170.7C1013.3,192,1067,160,1120,138.7C1173.3,117,1227,107,1280,112C1333.3,117,1387,139,1413,149.3L1440,160L1440,0L1413.3,0C1386.7,0,1333,0,1280,0C1226.7,0,1173,0,1120,0C1066.7,0,1013,0,960,0C906.7,0,853,0,800,0C746.7,0,693,0,640,0C586.7,0,533,0,480,0C426.7,0,373,0,320,0C266.7,0,213,0,160,0C106.7,0,53,0,27,0L0,0Z"/>
</svg>
